<svg width="117" height="32" viewBox="0 0 117 32" fill="none" xmlns="http://www.w3.org/2000/svg">
<path d="M4.64391 3H11.3639C13.5506 3 15.1906 3.58667 16.2839 4.76C17.3772 5.93333 17.9239 7.65333 17.9239 9.92V24.08C17.9239 26.3467 17.3772 28.0667 16.2839 29.24C15.1906 30.4133 13.5506 31 11.3639 31H4.64391V3ZM11.2839 27C12.0039 27 12.5506 26.7867 12.9239 26.36C13.3239 25.9333 13.5239 25.24 13.5239 24.28V9.72C13.5239 8.76 13.3239 8.06667 12.9239 7.64C12.5506 7.21333 12.0039 7 11.2839 7H9.04391V27H11.2839ZM27.2539 31.4C25.0939 31.4 23.4406 30.7867 22.2939 29.56C21.1472 28.3333 20.5739 26.6 20.5739 24.36V9.64C20.5739 7.4 21.1472 5.66667 22.2939 4.44C23.4406 3.21333 25.0939 2.6 27.2539 2.6C29.4139 2.6 31.0672 3.21333 32.2139 4.44C33.3606 5.66667 33.9339 7.4 33.9339 9.64V24.36C33.9339 26.6 33.3606 28.3333 32.2139 29.56C31.0672 30.7867 29.4139 31.4 27.2539 31.4ZM27.2539 27.4C28.7739 27.4 29.5339 26.48 29.5339 24.64V9.36C29.5339 7.52 28.7739 6.6 27.2539 6.6C25.7339 6.6 24.9739 7.52 24.9739 9.36V24.64C24.9739 26.48 25.7339 27.4 27.2539 27.4ZM36.9095 3H42.4295L46.7095 19.76H46.7895V3H50.7095V31H46.1895L40.9095 10.56H40.8295V31H36.9095V3ZM60.3798 31.4C58.2465 31.4 56.6198 30.8 55.4998 29.6C54.3798 28.3733 53.8198 26.6267 53.8198 24.36V3H58.2198V24.68C58.2198 25.64 58.4065 26.3333 58.7798 26.76C59.1798 27.1867 59.7398 27.4 60.4598 27.4C61.1798 27.4 61.7265 27.1867 62.0998 26.76C62.4998 26.3333 62.6998 25.64 62.6998 24.68V3H66.9398V24.36C66.9398 26.6267 66.3798 28.3733 65.2598 29.6C64.1398 30.8 62.5132 31.4 60.3798 31.4ZM73.5136 7H68.9136V3H82.5136V7H77.9136V31H73.5136V7ZM90.8477 31.4C88.6877 31.4 87.0343 30.7867 85.8877 29.56C84.741 28.3333 84.1677 26.6 84.1677 24.36V9.64C84.1677 7.4 84.741 5.66667 85.8877 4.44C87.0343 3.21333 88.6877 2.6 90.8477 2.6C93.0077 2.6 94.661 3.21333 95.8077 4.44C96.9543 5.66667 97.5277 7.4 97.5277 9.64V24.36C97.5277 26.6 96.9543 28.3333 95.8077 29.56C94.661 30.7867 93.0077 31.4 90.8477 31.4ZM90.8477 27.4C92.3677 27.4 93.1277 26.48 93.1277 24.64V9.36C93.1277 7.52 92.3677 6.6 90.8477 6.6C89.3277 6.6 88.5677 7.52 88.5677 9.36V24.64C88.5677 26.48 89.3277 27.4 90.8477 27.4ZM100.503 3H107.023C109.29 3 110.943 3.53333 111.983 4.6C113.023 5.64 113.543 7.25333 113.543 9.44V11.16C113.543 14.0667 112.583 15.9067 110.663 16.68V16.76C111.73 17.08 112.477 17.7333 112.903 18.72C113.357 19.7067 113.583 21.0267 113.583 22.68V27.6C113.583 28.4 113.61 29.0533 113.663 29.56C113.717 30.04 113.85 30.52 114.063 31H109.583C109.423 30.5467 109.317 30.12 109.263 29.72C109.21 29.32 109.183 28.6 109.183 27.56V22.44C109.183 21.16 108.97 20.2667 108.543 19.76C108.143 19.2533 107.437 19 106.423 19H104.903V31H100.503V3ZM106.503 15C107.383 15 108.037 14.7733 108.463 14.32C108.917 13.8667 109.143 13.1067 109.143 12.04V9.88C109.143 8.86667 108.957 8.13333 108.583 7.68C108.237 7.22667 107.677 7 106.903 7H104.903V15H106.503Z" fill="#3A405A"/>
<path d="M2.64391 0.999998H9.36391C11.5506 0.999998 13.1906 1.58667 14.2839 2.76C15.3772 3.93333 15.9239 5.65333 15.9239 7.92V22.08C15.9239 24.3467 15.3772 26.0667 14.2839 27.24C13.1906 28.4133 11.5506 29 9.36391 29H2.64391V0.999998ZM9.28391 25C10.0039 25 10.5506 24.7867 10.9239 24.36C11.3239 23.9333 11.5239 23.24 11.5239 22.28V7.72C11.5239 6.76 11.3239 6.06667 10.9239 5.64C10.5506 5.21333 10.0039 5 9.28391 5H7.04391V25H9.28391ZM25.2539 29.4C23.0939 29.4 21.4406 28.7867 20.2939 27.56C19.1472 26.3333 18.5739 24.6 18.5739 22.36V7.64C18.5739 5.4 19.1472 3.66667 20.2939 2.44C21.4406 1.21333 23.0939 0.599998 25.2539 0.599998C27.4139 0.599998 29.0672 1.21333 30.2139 2.44C31.3606 3.66667 31.9339 5.4 31.9339 7.64V22.36C31.9339 24.6 31.3606 26.3333 30.2139 27.56C29.0672 28.7867 27.4139 29.4 25.2539 29.4ZM25.2539 25.4C26.7739 25.4 27.5339 24.48 27.5339 22.64V7.36C27.5339 5.52 26.7739 4.6 25.2539 4.6C23.7339 4.6 22.9739 5.52 22.9739 7.36V22.64C22.9739 24.48 23.7339 25.4 25.2539 25.4ZM34.9095 0.999998H40.4295L44.7095 17.76H44.7895V0.999998H48.7095V29H44.1895L38.9095 8.56H38.8295V29H34.9095V0.999998ZM58.3798 29.4C56.2465 29.4 54.6198 28.8 53.4998 27.6C52.3798 26.3733 51.8198 24.6267 51.8198 22.36V0.999998H56.2198V22.68C56.2198 23.64 56.4065 24.3333 56.7798 24.76C57.1798 25.1867 57.7398 25.4 58.4598 25.4C59.1798 25.4 59.7265 25.1867 60.0998 24.76C60.4998 24.3333 60.6998 23.64 60.6998 22.68V0.999998H64.9398V22.36C64.9398 24.6267 64.3798 26.3733 63.2598 27.6C62.1398 28.8 60.5132 29.4 58.3798 29.4ZM71.5136 5H66.9136V0.999998H80.5136V5H75.9136V29H71.5136V5ZM88.8477 29.4C86.6877 29.4 85.0343 28.7867 83.8877 27.56C82.741 26.3333 82.1677 24.6 82.1677 22.36V7.64C82.1677 5.4 82.741 3.66667 83.8877 2.44C85.0343 1.21333 86.6877 0.599998 88.8477 0.599998C91.0077 0.599998 92.661 1.21333 93.8077 2.44C94.9543 3.66667 95.5277 5.4 95.5277 7.64V22.36C95.5277 24.6 94.9543 26.3333 93.8077 27.56C92.661 28.7867 91.0077 29.4 88.8477 29.4ZM88.8477 25.4C90.3677 25.4 91.1277 24.48 91.1277 22.64V7.36C91.1277 5.52 90.3677 4.6 88.8477 4.6C87.3277 4.6 86.5677 5.52 86.5677 7.36V22.64C86.5677 24.48 87.3277 25.4 88.8477 25.4ZM98.5033 0.999998H105.023C107.29 0.999998 108.943 1.53333 109.983 2.6C111.023 3.64 111.543 5.25333 111.543 7.44V9.16C111.543 12.0667 110.583 13.9067 108.663 14.68V14.76C109.73 15.08 110.477 15.7333 110.903 16.72C111.357 17.7067 111.583 19.0267 111.583 20.68V25.6C111.583 26.4 111.61 27.0533 111.663 27.56C111.717 28.04 111.85 28.52 112.063 29H107.583C107.423 28.5467 107.317 28.12 107.263 27.72C107.21 27.32 107.183 26.6 107.183 25.56V20.44C107.183 19.16 106.97 18.2667 106.543 17.76C106.143 17.2533 105.437 17 104.423 17H102.903V29H98.5033V0.999998ZM104.503 13C105.383 13 106.037 12.7733 106.463 12.32C106.917 11.8667 107.143 11.1067 107.143 10.04V7.88C107.143 6.86667 106.957 6.13333 106.583 5.68C106.237 5.22667 105.677 5 104.903 5H102.903V13H104.503Z" fill="#D3F3EE"/>
<path d="M2.64391 0.999998V-1.90735e-06H1.64391V0.999998H2.64391ZM14.2839 2.76L13.5523 3.44172L13.5523 3.44173L14.2839 2.76ZM2.64391 29H1.64391V30H2.64391V29ZM10.9239 24.36L10.1944 23.6761L10.1826 23.6886L10.1713 23.7015L10.9239 24.36ZM10.9239 5.64L10.1713 6.2985L10.1826 6.31142L10.1944 6.32394L10.9239 5.64ZM7.04391 5V4H6.04391V5H7.04391ZM7.04391 25H6.04391V26H7.04391V25ZM2.64391 2H9.36391V-1.90735e-06H2.64391V2ZM9.36391 2C11.3776 2 12.7092 2.53694 13.5523 3.44172L15.0155 2.07827C13.6719 0.636391 11.7235 -1.90735e-06 9.36391 -1.90735e-06V2ZM13.5523 3.44173C14.413 4.36546 14.9239 5.8017 14.9239 7.92H16.9239C16.9239 5.50497 16.3414 3.50121 15.0155 2.07827L13.5523 3.44173ZM14.9239 7.92V22.08H16.9239V7.92H14.9239ZM14.9239 22.08C14.9239 24.1983 14.413 25.6345 13.5523 26.5583L15.0155 27.9217C16.3414 26.4988 16.9239 24.495 16.9239 22.08H14.9239ZM13.5523 26.5583C12.7092 27.4631 11.3776 28 9.36391 28V30C11.7235 30 13.6719 29.3636 15.0155 27.9217L13.5523 26.5583ZM9.36391 28H2.64391V30H9.36391V28ZM3.64391 29V0.999998H1.64391V29H3.64391ZM9.28391 26C10.2087 26 11.0644 25.718 11.6765 25.0185L10.1713 23.7015C10.0368 23.8553 9.79914 24 9.28391 24V26ZM11.6534 25.0439C12.3096 24.3441 12.5239 23.3404 12.5239 22.28H10.5239C10.5239 23.1396 10.3382 23.5226 10.1944 23.6761L11.6534 25.0439ZM12.5239 22.28V7.72H10.5239V22.28H12.5239ZM12.5239 7.72C12.5239 6.6596 12.3096 5.65595 11.6534 4.95606L10.1944 6.32394C10.3382 6.47738 10.5239 6.8604 10.5239 7.72H12.5239ZM11.6765 4.98149C11.0644 4.28196 10.2087 4 9.28391 4V6C9.79914 6 10.0368 6.1447 10.1713 6.2985L11.6765 4.98149ZM9.28391 4H7.04391V6H9.28391V4ZM6.04391 5V25H8.04391V5H6.04391ZM7.04391 26H9.28391V24H7.04391V26ZM20.2939 27.56L21.0244 26.8771L21.0244 26.8771L20.2939 27.56ZM20.2939 2.44L21.0244 3.12288L21.0244 3.12288L20.2939 2.44ZM30.2139 2.44L29.4834 3.12288L29.4834 3.12288L30.2139 2.44ZM30.2139 27.56L29.4834 26.8771L29.4834 26.8771L30.2139 27.56ZM25.2539 28.4C23.287 28.4 21.9315 27.8475 21.0244 26.8771L19.5634 28.2429C20.9497 29.7259 22.9008 30.4 25.2539 30.4V28.4ZM21.0244 26.8771C20.1022 25.8905 19.5739 24.433 19.5739 22.36H17.5739C17.5739 24.767 18.1923 26.7762 19.5634 28.2429L21.0244 26.8771ZM19.5739 22.36V7.64H17.5739V22.36H19.5739ZM19.5739 7.64C19.5739 5.56697 20.1022 4.1095 21.0244 3.12288L19.5634 1.75711C18.1923 3.22383 17.5739 5.23303 17.5739 7.64H19.5739ZM21.0244 3.12288C21.9315 2.15255 23.287 1.6 25.2539 1.6V-0.400002C22.9008 -0.400002 20.9497 0.274117 19.5634 1.75711L21.0244 3.12288ZM25.2539 1.6C27.2208 1.6 28.5763 2.15255 29.4834 3.12288L30.9444 1.75711C29.5582 0.274117 27.607 -0.400002 25.2539 -0.400002V1.6ZM29.4834 3.12288C30.4057 4.1095 30.9339 5.56697 30.9339 7.64H32.9339C32.9339 5.23303 32.3155 3.22383 30.9444 1.75711L29.4834 3.12288ZM30.9339 7.64V22.36H32.9339V7.64H30.9339ZM30.9339 22.36C30.9339 24.433 30.4057 25.8905 29.4834 26.8771L30.9444 28.2429C32.3155 26.7762 32.9339 24.767 32.9339 22.36H30.9339ZM29.4834 26.8771C28.5763 27.8475 27.2208 28.4 25.2539 28.4V30.4C27.607 30.4 29.5582 29.7259 30.9444 28.2429L29.4834 26.8771ZM25.2539 26.4C26.2237 26.4 27.115 26.0973 27.7349 25.3469C28.3246 24.633 28.5339 23.6726 28.5339 22.64H26.5339C26.5339 23.4474 26.3633 23.867 26.1929 24.0731C26.0529 24.2427 25.8041 24.4 25.2539 24.4V26.4ZM28.5339 22.64V7.36H26.5339V22.64H28.5339ZM28.5339 7.36C28.5339 6.32739 28.3246 5.36696 27.7349 4.65312C27.115 3.90269 26.2237 3.6 25.2539 3.6V5.6C25.8041 5.6 26.0529 5.75731 26.1929 5.92688C26.3633 6.13304 26.5339 6.55261 26.5339 7.36H28.5339ZM25.2539 3.6C24.2841 3.6 23.3929 3.90269 22.7729 4.65312C22.1833 5.36696 21.9739 6.32739 21.9739 7.36H23.9739C23.9739 6.55261 24.1446 6.13304 24.3149 5.92688C24.455 5.75731 24.7037 5.6 25.2539 5.6V3.6ZM21.9739 7.36V22.64H23.9739V7.36H21.9739ZM21.9739 22.64C21.9739 23.6726 22.1833 24.633 22.7729 25.3469C23.3929 26.0973 24.2841 26.4 25.2539 26.4V24.4C24.7037 24.4 24.455 24.2427 24.3149 24.0731C24.1446 23.867 23.9739 23.4474 23.9739 22.64H21.9739ZM34.9095 0.999998V-1.90735e-06H33.9095V0.999998H34.9095ZM40.4295 0.999998L41.3984 0.752569L41.2063 -1.90735e-06H40.4295V0.999998ZM44.7095 17.76L43.7406 18.0074L43.9328 18.76H44.7095V17.76ZM44.7895 17.76V18.76H45.7895V17.76H44.7895ZM44.7895 0.999998V-1.90735e-06H43.7895V0.999998H44.7895ZM48.7095 0.999998H49.7095V-1.90735e-06H48.7095V0.999998ZM48.7095 29V30H49.7095V29H48.7095ZM44.1895 29L43.2213 29.2501L43.415 30H44.1895V29ZM38.9095 8.56L39.8777 8.30989L39.684 7.56H38.9095V8.56ZM38.8295 8.56V7.56H37.8295V8.56H38.8295ZM38.8295 29V30H39.8295V29H38.8295ZM34.9095 29H33.9095V30H34.9095V29ZM34.9095 2H40.4295V-1.90735e-06H34.9095V2ZM39.4606 1.24743L43.7406 18.0074L45.6784 17.5126L41.3984 0.752569L39.4606 1.24743ZM44.7095 18.76H44.7895V16.76H44.7095V18.76ZM45.7895 17.76V0.999998H43.7895V17.76H45.7895ZM44.7895 2H48.7095V-1.90735e-06H44.7895V2ZM47.7095 0.999998V29H49.7095V0.999998H47.7095ZM48.7095 28H44.1895V30H48.7095V28ZM45.1577 28.7499L39.8777 8.30989L37.9413 8.81011L43.2213 29.2501L45.1577 28.7499ZM38.9095 7.56H38.8295V9.56H38.9095V7.56ZM37.8295 8.56V29H39.8295V8.56H37.8295ZM38.8295 28H34.9095V30H38.8295V28ZM35.9095 29V0.999998H33.9095V29H35.9095ZM53.4998 27.6L52.7613 28.2743L52.7688 28.2823L53.4998 27.6ZM51.8198 0.999998V-1.90735e-06H50.8198V0.999998H51.8198ZM56.2198 0.999998H57.2198V-1.90735e-06H56.2198V0.999998ZM56.7798 24.76L56.0273 25.4185L56.0386 25.4314L56.0503 25.4439L56.7798 24.76ZM60.0998 24.76L59.3703 24.0761L59.3586 24.0886L59.3473 24.1015L60.0998 24.76ZM60.6998 0.999998V-1.90735e-06H59.6998V0.999998H60.6998ZM64.9398 0.999998H65.9398V-1.90735e-06H64.9398V0.999998ZM63.2598 27.6L63.9909 28.2824L63.9983 28.2743L63.2598 27.6ZM58.3798 28.4C56.4362 28.4 55.1093 27.8589 54.2309 26.9177L52.7688 28.2823C54.1303 29.7411 56.0569 30.4 58.3798 30.4V28.4ZM54.2383 26.9257C53.3397 25.9415 52.8198 24.4691 52.8198 22.36H50.8198C50.8198 24.7842 51.42 26.8052 52.7614 28.2743L54.2383 26.9257ZM52.8198 22.36V0.999998H50.8198V22.36H52.8198ZM51.8198 2H56.2198V-1.90735e-06H51.8198V2ZM55.2198 0.999998V22.68H57.2198V0.999998H55.2198ZM55.2198 22.68C55.2198 23.7275 55.4157 24.7196 56.0273 25.4185L57.5324 24.1015C57.3973 23.9471 57.2198 23.5525 57.2198 22.68H55.2198ZM56.0503 25.4439C56.6816 26.1173 57.5319 26.4 58.4598 26.4V24.4C57.9477 24.4 57.6781 24.256 57.5094 24.0761L56.0503 25.4439ZM58.4598 26.4C59.3846 26.4 60.2403 26.118 60.8524 25.4185L59.3473 24.1015C59.2127 24.2553 58.9751 24.4 58.4598 24.4V26.4ZM60.8294 25.4439C61.4855 24.7441 61.6998 23.7404 61.6998 22.68H59.6998C59.6998 23.5396 59.5142 23.9226 59.3703 24.0761L60.8294 25.4439ZM61.6998 22.68V0.999998H59.6998V22.68H61.6998ZM60.6998 2H64.9398V-1.90735e-06H60.6998V2ZM63.9398 0.999998V22.36H65.9398V0.999998H63.9398ZM63.9398 22.36C63.9398 24.4691 63.42 25.9415 62.5214 26.9257L63.9983 28.2743C65.3397 26.8052 65.9398 24.7842 65.9398 22.36H63.9398ZM62.5288 26.9177C61.6503 27.8589 60.3235 28.4 58.3798 28.4V30.4C60.7028 30.4 62.6293 29.7411 63.9909 28.2823L62.5288 26.9177ZM71.5136 5H72.5136V4H71.5136V5ZM66.9136 5H65.9136V6H66.9136V5ZM66.9136 0.999998V-1.90735e-06H65.9136V0.999998H66.9136ZM80.5136 0.999998H81.5136V-1.90735e-06H80.5136V0.999998ZM80.5136 5V6H81.5136V5H80.5136ZM75.9136 5V4H74.9136V5H75.9136ZM75.9136 29V30H76.9136V29H75.9136ZM71.5136 29H70.5136V30H71.5136V29ZM71.5136 4H66.9136V6H71.5136V4ZM67.9136 5V0.999998H65.9136V5H67.9136ZM66.9136 2H80.5136V-1.90735e-06H66.9136V2ZM79.5136 0.999998V5H81.5136V0.999998H79.5136ZM80.5136 4H75.9136V6H80.5136V4ZM74.9136 5V29H76.9136V5H74.9136ZM75.9136 28H71.5136V30H75.9136V28ZM72.5136 29V5H70.5136V29H72.5136ZM83.8877 27.56L84.6182 26.8771L84.6182 26.8771L83.8877 27.56ZM83.8877 2.44L84.6182 3.12288L84.6182 3.12288L83.8877 2.44ZM93.8077 2.44L93.0771 3.12288L93.0771 3.12288L93.8077 2.44ZM93.8077 27.56L93.0771 26.8771L93.0771 26.8771L93.8077 27.56ZM88.8477 28.4C86.8807 28.4 85.5252 27.8475 84.6182 26.8771L83.1571 28.2429C84.5434 29.7259 86.4946 30.4 88.8477 30.4V28.4ZM84.6182 26.8771C83.6959 25.8905 83.1677 24.433 83.1677 22.36H81.1677C81.1677 24.767 81.7861 26.7762 83.1571 28.2429L84.6182 26.8771ZM83.1677 22.36V7.64H81.1677V22.36H83.1677ZM83.1677 7.64C83.1677 5.56697 83.6959 4.1095 84.6182 3.12288L83.1571 1.75711C81.7861 3.22383 81.1677 5.23303 81.1677 7.64H83.1677ZM84.6182 3.12288C85.5252 2.15255 86.8807 1.6 88.8477 1.6V-0.400002C86.4946 -0.400002 84.5434 0.274117 83.1571 1.75711L84.6182 3.12288ZM88.8477 1.6C90.8146 1.6 92.1701 2.15255 93.0771 3.12288L94.5382 1.75711C93.1519 0.274117 91.2007 -0.400002 88.8477 -0.400002V1.6ZM93.0771 3.12288C93.9994 4.1095 94.5277 5.56697 94.5277 7.64H96.5277C96.5277 5.23303 95.9092 3.22383 94.5382 1.75711L93.0771 3.12288ZM94.5277 7.64V22.36H96.5277V7.64H94.5277ZM94.5277 22.36C94.5277 24.433 93.9994 25.8905 93.0771 26.8771L94.5382 28.2429C95.9092 26.7762 96.5277 24.767 96.5277 22.36H94.5277ZM93.0771 26.8771C92.1701 27.8475 90.8146 28.4 88.8477 28.4V30.4C91.2007 30.4 93.1519 29.7259 94.5382 28.2429L93.0771 26.8771ZM88.8477 26.4C89.8175 26.4 90.7087 26.0973 91.3286 25.3469C91.9183 24.633 92.1277 23.6726 92.1277 22.64H90.1277C90.1277 23.4474 89.957 23.867 89.7867 24.0731C89.6466 24.2427 89.3978 24.4 88.8477 24.4V26.4ZM92.1277 22.64V7.36H90.1277V22.64H92.1277ZM92.1277 7.36C92.1277 6.32739 91.9183 5.36696 91.3286 4.65312C90.7087 3.90269 89.8175 3.6 88.8477 3.6V5.6C89.3978 5.6 89.6466 5.75731 89.7867 5.92688C89.957 6.13304 90.1277 6.55261 90.1277 7.36H92.1277ZM88.8477 3.6C87.8778 3.6 86.9866 3.90269 86.3667 4.65312C85.777 5.36696 85.5677 6.32739 85.5677 7.36H87.5677C87.5677 6.55261 87.7383 6.13304 87.9086 5.92688C88.0487 5.75731 88.2975 5.6 88.8477 5.6V3.6ZM85.5677 7.36V22.64H87.5677V7.36H85.5677ZM85.5677 22.64C85.5677 23.6726 85.777 24.633 86.3667 25.3469C86.9866 26.0973 87.8778 26.4 88.8477 26.4V24.4C88.2975 24.4 88.0487 24.2427 87.9086 24.0731C87.7383 23.867 87.5677 23.4474 87.5677 22.64H85.5677ZM98.5033 0.999998V-1.90735e-06H97.5033V0.999998H98.5033ZM109.983 2.6L109.267 3.29815L109.276 3.30711L109.983 2.6ZM108.663 14.68L108.29 13.7524L107.663 14.0047V14.68H108.663ZM108.663 14.76H107.663V15.504L108.376 15.7178L108.663 14.76ZM110.903 16.72L109.985 17.1169L109.99 17.1273L109.995 17.1375L110.903 16.72ZM111.663 27.56L110.669 27.6647L110.669 27.6704L111.663 27.56ZM112.063 29V30H113.602L112.977 28.5939L112.063 29ZM107.583 29L106.64 29.3328L106.876 30H107.583V29ZM106.543 17.76L105.758 18.3796L105.768 18.392L105.778 18.4041L106.543 17.76ZM102.903 17V16H101.903V17H102.903ZM102.903 29V30H103.903V29H102.903ZM98.5033 29H97.5033V30H98.5033V29ZM106.463 12.32L105.756 11.6129L105.745 11.6236L105.735 11.6346L106.463 12.32ZM106.583 5.68L105.789 6.28745L105.8 6.30178L105.811 6.31571L106.583 5.68ZM102.903 5V4H101.903V5H102.903ZM102.903 13H101.903V14H102.903V13ZM98.5033 2H105.023V-1.90735e-06H98.5033V2ZM105.023 2C107.159 2 108.494 2.50519 109.267 3.2981L110.699 1.9019C109.392 0.561476 107.421 -1.90735e-06 105.023 -1.90735e-06V2ZM109.276 3.30711C110.054 4.08516 110.543 5.39053 110.543 7.44H112.543C112.543 5.11613 111.992 3.19484 110.69 1.89289L109.276 3.30711ZM110.543 7.44V9.16H112.543V7.44H110.543ZM110.543 9.16C110.543 10.5131 110.318 11.5258 109.937 12.2574C109.567 12.9669 109.028 13.455 108.29 13.7524L109.037 15.6076C110.218 15.1317 111.12 14.3131 111.71 13.1826C112.288 12.0742 112.543 10.7136 112.543 9.16H110.543ZM107.663 14.68V14.76H109.663V14.68H107.663ZM108.376 15.7178C109.172 15.9565 109.681 16.4121 109.985 17.1169L111.821 16.3231C111.273 15.0546 110.288 14.2035 108.951 13.8022L108.376 15.7178ZM109.995 17.1375C110.365 17.9429 110.583 19.1026 110.583 20.68H112.583C112.583 18.9507 112.349 17.4705 111.812 16.3025L109.995 17.1375ZM110.583 20.68V25.6H112.583V20.68H110.583ZM110.583 25.6C110.583 26.4177 110.61 27.1095 110.669 27.6647L112.658 27.4553C112.61 26.9972 112.583 26.3823 112.583 25.6H110.583ZM110.669 27.6704C110.735 28.2611 110.898 28.8405 111.149 29.4061L112.977 28.5939C112.802 28.1995 112.698 27.8189 112.657 27.4496L110.669 27.6704ZM112.063 28H107.583V30H112.063V28ZM108.526 28.6672C108.385 28.2669 108.297 27.908 108.255 27.5878L106.272 27.8522C106.336 28.332 106.462 28.8264 106.64 29.3328L108.526 28.6672ZM108.255 27.5878C108.211 27.2619 108.183 26.6035 108.183 25.56H106.183C106.183 26.5965 106.209 27.3781 106.272 27.8522L108.255 27.5878ZM108.183 25.56V20.44H106.183V25.56H108.183ZM108.183 20.44C108.183 19.1138 107.975 17.9081 107.308 17.1159L105.778 18.4041C105.965 18.6252 106.183 19.2062 106.183 20.44H108.183ZM107.328 17.1404C106.651 16.283 105.567 16 104.423 16V18C105.306 18 105.635 18.2237 105.758 18.3796L107.328 17.1404ZM104.423 16H102.903V18H104.423V16ZM101.903 17V29H103.903V17H101.903ZM102.903 28H98.5033V30H102.903V28ZM99.5033 29V0.999998H97.5033V29H99.5033ZM104.503 14C105.543 14 106.509 13.7309 107.191 13.0054L105.735 11.6346C105.565 11.8158 105.224 12 104.503 12V14ZM107.17 13.0271C107.903 12.2945 108.143 11.2053 108.143 10.04H106.143C106.143 11.008 105.93 11.4389 105.756 11.6129L107.17 13.0271ZM108.143 10.04V7.88H106.143V10.04H108.143ZM108.143 7.88C108.143 6.78728 107.95 5.76681 107.355 5.04429L105.811 6.31571C105.963 6.49985 106.143 6.94606 106.143 7.88H108.143ZM107.378 5.07255C106.78 4.29062 105.869 4 104.903 4V6C105.484 6 105.694 6.16271 105.789 6.28745L107.378 5.07255ZM104.903 4H102.903V6H104.903V4ZM101.903 5V13H103.903V5H101.903ZM102.903 14H104.503V12H102.903V14Z" fill="black"/>
</svg>
